<svg xmlns="http://www.w3.org/2000/svg" style="display: none;">
    <symbol id="icon-heart" viewBox="0 0 512 512">
        <path d="M256,481.87c124.36-96.24,187.43-150,227.69-221.12,56.59-100.1,22.29-185-49.39-218.18C367,11.46,287.19,40.67,256,107.84,224.81,40.67,145,11.46,77.72,42.58,6,75.79-28.27,160.65,28.31,260.76,68.57,331.91,131.64,385.63,256,481.87Z" fill="currentColor"/>
    </symbol>
    <symbol id="icon-globe" viewBox="0 0 20 20">
        <path fill-rule="evenodd" clip-rule="evenodd"
              d="M0 10C0 4.48 4.47 0 9.99 0C15.52 0 20 4.48 20 10C20 15.52 15.52 20 9.99 20C4.47 20 0 15.52 0 10ZM13.97 6H16.92C15.96 4.35 14.43 3.07 12.59 2.44C13.19 3.55 13.65 4.75 13.97 6ZM10 2.04C10.83 3.24 11.48 4.57 11.91 6H8.09C8.52 4.57 9.17 3.24 10 2.04ZM2 10C2 10.69 2.1 11.36 2.26 12H5.64C5.56 11.34 5.5 10.68 5.5 10C5.5 9.32 5.56 8.66 5.64 8H2.26C2.1 8.64 2 9.31 2 10ZM3.08 14H6.03C6.35 15.25 6.81 16.45 7.41 17.56C5.57 16.93 4.04 15.66 3.08 14ZM3.08 6H6.03C6.35 4.75 6.81 3.55 7.41 2.44C5.57 3.07 4.04 4.34 3.08 6ZM10 17.96C9.17 16.76 8.52 15.43 8.09 14H11.91C11.48 15.43 10.83 16.76 10 17.96ZM7.5 10C7.5 10.68 7.57 11.34 7.66 12H12.34C12.43 11.34 12.5 10.68 12.5 10C12.5 9.32 12.43 8.65 12.34 8H7.66C7.57 8.65 7.5 9.32 7.5 10ZM12.59 17.56C13.19 16.45 13.65 15.25 13.97 14H16.92C15.96 15.65 14.43 16.93 12.59 17.56ZM14.5 10C14.5 10.68 14.44 11.34 14.36 12H17.74C17.9 11.36 18 10.69 18 10C18 9.31 17.9 8.64 17.74 8H14.36C14.44 8.66 14.5 9.32 14.5 10Z"
              fill="#B9534A"/>
    </symbol>
    <symbol id="icon-hide" viewBox="0 0 14 14">
        <path d="M7 0C3.136 0 0 3.136 0 7C0 10.864 3.136 14 7 14C10.864 14 14 10.864 14 7C14 3.136 10.864 0 7 0ZM7 12.6C3.906 12.6 1.4 10.094 1.4 7C1.4 5.705 1.841 4.515 2.583 3.57L10.43 11.417C9.485 12.159 8.295 12.6 7 12.6ZM11.417 10.43L3.57 2.583C4.515 1.841 5.705 1.4 7 1.4C10.094 1.4 12.6 3.906 12.6 7C12.6 8.295 12.159 9.485 11.417 10.43Z"
              fill="#999999"/>
    </symbol>
    <symbol id="icon-menu" viewBox="0 0 5 20">
        <circle cx="2.5" cy="2.5" r="2.5" fill="#D9D9D9"/>
        <circle cx="2.5" cy="10" r="2.5" fill="#D9D9D9"/>
        <circle cx="2.5" cy="17.5" r="2.5" fill="#D9D9D9"/>
    </symbol>
    <symbol id="icon-share" viewBox="0 0 12 14">
        <path d="M10 9.89558C9.49333 9.89558 9.04 10.1064 8.69333 10.4367L3.94 7.52008C3.97333 7.35843 4 7.19679 4 7.02811C4 6.85944 3.97333 6.69779 3.94 6.53614L8.64 3.64759C9 3.999 9.47333 4.21687 10 4.21687C11.1067 4.21687 12 3.2751 12 2.10843C12 0.941767 11.1067 0 10 0C8.89333 0 8 0.941767 8 2.10843C8 2.27711 8.02667 2.43875 8.06 2.6004L3.36 5.48896C3 5.13755 2.52667 4.91968 2 4.91968C0.893333 4.91968 0 5.86145 0 7.02811C0 8.19478 0.893333 9.13655 2 9.13655C2.52667 9.13655 3 8.91867 3.36 8.56727L8.10667 11.491C8.07333 11.6386 8.05333 11.7932 8.05333 11.9478C8.05333 13.0793 8.92667 14 10 14C11.0733 14 11.9467 13.0793 11.9467 11.9478C11.9467 10.8163 11.0733 9.89558 10 9.89558Z"
              fill="#999999"/>
    </symbol>
    <symbol id="icon-warning">
        <path d="M0 14H16L8 0L0 14ZM8.72727 11.7895H7.27273V10.3158H8.72727V11.7895ZM8.72727 8.8421H7.27273V5.89474H8.72727V8.8421Z"
              fill="#999999"/>
    </symbol>
    <symbol id="icon-up" viewBox="0 0 19 10">
        <path d="M9.5 0L0 10H19L9.5 0Z" fill="#D9D9D9"/>
    </symbol>
    <symbol id="icon-avatar" viewBox="0 0 50 50">
        <path d="M25 0C11.2 0 0 11.2 0 25C0 38.8 11.2 50 25 50C38.8 50 50 38.8 50 25C50 11.2 38.8 0 25 0ZM25 7.5C29.15 7.5 32.5 10.85 32.5 15C32.5 19.15 29.15 22.5 25 22.5C20.85 22.5 17.5 19.15 17.5 15C17.5 10.85 20.85 7.5 25 7.5ZM25 43C18.75 43 13.225 39.8 10 34.95C10.075 29.975 20 27.25 25 27.25C29.975 27.25 39.925 29.975 40 34.95C36.775 39.8 31.25 43 25 43Z"
              fill="#D9D9D9"/>
    </symbol>
    <symbol id="icon-pagination" viewBox="0 0 28 38">
        <mask id="path-1-inside-1_8:331" fill="currentColor">
            <path fill-rule="evenodd" clip-rule="evenodd" d="M18.7923 0H0V38H27.7692V8.9769L18.7923 0Z"/>
        </mask>
        <path d="M0 0V-1H-1V0H0ZM18.7923 0L19.4994 -0.707107L19.2065 -1H18.7923V0ZM0 38H-1V39H0V38ZM27.7692 38V39H28.7692V38H27.7692ZM27.7692 8.9769H28.7692V8.56269L28.4763 8.26979L27.7692 8.9769ZM0 1H18.7923V-1H0V1ZM1 38V0H-1V38H1ZM27.7692 37H0V39H27.7692V37ZM26.7692 8.9769V38H28.7692V8.9769H26.7692ZM28.4763 8.26979L19.4994 -0.707107L18.0852 0.707107L27.0621 9.68401L28.4763 8.26979Z"
              fill="currentColor" mask="url(#path-1-inside-1_8:331)"/>
    </symbol>
</svg>